<?xml version="1.0" encoding="iso-8859-1"?>
<!-- Generator: Adobe Illustrator 19.0.0, SVG Export Plug-In . SVG Version: 6.00 Build 0)  -->
<svg version="1.1" id="Capa_1" xmlns="http://www.w3.org/2000/svg" xmlns:xlink="http://www.w3.org/1999/xlink" x="0px" y="0px"
	 viewBox="0 0 512 512" style="enable-background:new 0 0 512 512;" xml:space="preserve">
<g>
	<g>
		<path d="M505.6,243.2l-64-48c-4.8-3.648-11.328-4.224-16.736-1.504c-5.44,2.72-8.864,8.256-8.864,14.304v32h-32.992
			C378.016,156.832,334.944,80.896,264.8,34.656C262.176,32.928,259.136,32,256,32c-8.832,0-16-7.168-16-16s-7.168-16-16-16
			c-8.832,0-16,7.168-16,16c0,7.584,2.304,14.432,5.472,20.736L72.896,192H16c-5.92,0-11.328,3.264-14.112,8.448
			c-2.784,5.184-2.464,11.52,0.8,16.416L28.768,256l-26.08,39.136c-3.264,4.896-3.584,11.232-0.8,16.448
			C4.672,316.736,10.08,320,16,320h56.896l140.576,155.264C210.304,481.568,208,488.416,208,496c0,8.832,7.168,16,16,16
			c8.832,0,16-7.168,16-16c0-8.8,7.168-16,16-16c3.136,0,6.176-0.896,8.8-2.656C334.912,431.136,377.984,355.168,383.008,272H416v32
			c0,6.048,3.424,11.584,8.832,14.304c2.272,1.12,4.736,1.696,7.168,1.696c3.392,0,6.784-1.088,9.6-3.2l64-48
			c4.032-3.008,6.4-7.776,6.4-12.8S509.632,246.208,505.6,243.2z M247.424,449.28c-3.84,0.704-7.232,2.4-10.688,3.936
			L102.08,304.544L134.624,272h184.8C315.936,335.424,292.128,398.016,247.424,449.28z M134.624,240l-32.544-32.544L236.704,58.752
			c3.456,1.536,6.88,3.232,10.688,3.968c44.736,51.264,68.544,113.824,72.032,177.28H134.624z"/>
	</g>
</g>
<g>
</g>
<g>
</g>
<g>
</g>
<g>
</g>
<g>
</g>
<g>
</g>
<g>
</g>
<g>
</g>
<g>
</g>
<g>
</g>
<g>
</g>
<g>
</g>
<g>
</g>
<g>
</g>
<g>
</g>
</svg>
