<?xml version="1.0" encoding="iso-8859-1"?>
<!-- Generator: Adobe Illustrator 19.0.0, SVG Export Plug-In . SVG Version: 6.00 Build 0)  -->
<svg version="1.1" id="Capa_1" xmlns="http://www.w3.org/2000/svg" xmlns:xlink="http://www.w3.org/1999/xlink" x="0px" y="0px"
	 viewBox="0 0 512 512" style="enable-background:new 0 0 512 512;" xml:space="preserve">
<g>
	<g>
		<path d="M349.426,65.288L319.251,4.234c-0.994-2.01-2.825-3.48-5.002-4.015c-2.177-0.534-4.481-0.082-6.294,1.24L167.642,103.736
			c-3.393,2.474-4.14,7.23-1.666,10.624c1.488,2.042,3.804,3.125,6.151,3.125c1.553,0,3.122-0.474,4.473-1.46l133.017-96.959
			l26.175,52.96c1.861,3.766,6.422,5.309,10.186,3.448C349.743,73.614,351.286,69.053,349.426,65.288z"/>
	</g>
</g>
<g>
	<g>
		<path d="M341.684,332.475c-4.2,0-7.604,3.405-7.604,7.604v12.143c0,26.408-21.484,47.893-47.892,47.893h-98.381v-27.249
			c0-4.199-3.405-7.604-7.604-7.604s-7.604,3.405-7.604,7.604v33.64c-0.979,2.6-4.323,8.924-13.65,8.625
			c-4.189-0.142-7.709,3.159-7.843,7.357c-0.134,4.197,3.159,7.709,7.357,7.843c0.387,0.012,0.768,0.018,1.147,0.018
			c13.726,0,21.785-8.03,25.621-15.026h100.957c34.793,0,63.1-28.307,63.1-63.101v-12.143
			C349.288,335.88,345.884,332.475,341.684,332.475z"/>
	</g>
</g>
<g>
	<g>
		<path d="M180.203,314.59h-19.169l1.652-89.982c0.077-4.198-3.264-7.665-7.463-7.742c-4.197-0.062-7.666,3.265-7.742,7.463
			l-0.302,16.477l-13.003-0.016c-0.003,0-0.006,0-0.009,0c-4.195,0-7.599,3.398-7.604,7.594c-0.005,4.199,3.394,7.608,7.594,7.614
			l12.743,0.016l-1.214,66.04c-0.037,2.041,0.746,4.011,2.177,5.467c1.43,1.457,3.384,2.277,5.426,2.277h26.914
			c4.199,0,7.604-3.405,7.604-7.604C187.807,317.995,184.403,314.59,180.203,314.59z"/>
	</g>
</g>
<g>
	<g>
		<path d="M372.753,260.164h-0.47v-36.71c0-4.199-3.404-7.604-7.604-7.604s-7.604,3.405-7.604,7.604v36.71h-19.685
			c-4.2,0-7.604,3.405-7.604,7.604s3.404,7.604,7.604,7.604h27.289h8.074c10.153,0,18.412,8.26,18.412,18.413
			c0,10.153-8.259,18.413-18.412,18.413h-79.805c-11.658,0-21.143-9.485-21.143-21.143v-67.6c0-4.199-3.404-7.604-7.604-7.604
			s-7.604,3.405-7.604,7.604v67.6c0,20.044,16.307,36.351,36.351,36.351h79.805c18.537,0,33.62-15.082,33.62-33.621
			S391.29,260.164,372.753,260.164z"/>
	</g>
</g>
<g>
	<g>
		<path d="M218.226,357.673l-34.077-20.689c-2.425-1.472-5.468-1.472-7.892,0l-34.077,20.689c-3.59,2.179-4.733,6.856-2.554,10.446
			c2.179,3.59,6.856,4.733,10.446,2.554l30.131-18.292l30.131,18.292c1.233,0.749,2.594,1.105,3.939,1.105
			c2.569,0,5.076-1.303,6.507-3.659C222.959,364.529,221.816,359.852,218.226,357.673z"/>
	</g>
</g>
<g>
	<g>
		<path d="M381.686,419.154l-20.312-32.231c-2.24-3.554-6.933-4.617-10.487-2.379c-3.553,2.239-4.618,6.935-2.379,10.487
			l16.266,25.812l-109.168,69.14l-3.404-61.74c-0.231-4.193-3.82-7.407-8.012-7.174c-4.193,0.231-7.405,3.818-7.174,8.01
			l4.117,74.679c0.148,2.694,1.712,5.107,4.111,6.342c1.096,0.564,2.289,0.844,3.482,0.844c1.417,0,2.831-0.395,4.069-1.18
			l126.525-80.133C382.864,427.389,383.921,422.702,381.686,419.154z"/>
	</g>
</g>
<g>
	<g>
		<path d="M232.853,467.393c-3.24-2.672-8.033-2.211-10.704,1.028l-10.403,12.614l3.712-48.619c0.319-4.187-2.815-7.841-7.003-8.161
			c-4.184-0.323-7.841,2.815-8.161,7.003l-5.539,72.558c-0.252,3.305,1.666,6.393,4.741,7.632c0.923,0.372,1.886,0.552,2.839,0.552
			c2.222,0,4.392-0.976,5.868-2.767l25.679-31.137C236.553,474.857,236.092,470.064,232.853,467.393z"/>
	</g>
</g>
<g>
	<g>
		<path d="M452.007,2.784c-2.368-2.368-6.008-2.908-8.961-1.33l-61.09,32.643c-19.189,10.254-31.11,30.141-31.11,51.898v7.195
			l-18.564,18.564c-0.406,0.406-0.75,0.848-1.045,1.312l-51.734,4.876c-4.18,0.393-7.25,4.103-6.857,8.283
			c0.393,4.18,4.105,7.251,8.284,6.857l116.49-10.978l-22.843,73.466H128.205l-45.597-43.798l169.542-15.978
			c4.181-0.394,7.251-4.103,6.857-8.284c-0.394-4.181-4.095-7.252-8.283-6.857L64.657,138.19c-2.96,0.279-5.487,2.258-6.466,5.066
			c-0.979,2.807-0.232,5.929,1.912,7.988l59.774,57.416c1.415,1.361,3.303,2.12,5.267,2.12h255.033c3.33,0,6.273-2.167,7.261-5.346
			l27.894-89.713c0.754-2.428,0.245-5.073-1.357-7.048c-1.603-1.975-4.081-3.018-6.619-2.779l-52.669,4.964l6.911-6.913h7.195
			c21.758,0,41.643-11.921,51.898-31.111l32.642-61.089C454.915,8.791,454.375,5.152,452.007,2.784z M407.28,65.666
			c-7.603,14.231-22.35,23.07-38.484,23.07h-2.741v-2.741c0-16.135,8.84-30.88,23.069-38.485l38.991-20.835L407.28,65.666z"/>
	</g>
</g>
<g>
	<g>
		<path d="M224.773,240.814l-34.94-0.024c-0.002,0-0.003,0-0.005,0c-4.197,0-7.601,3.402-7.604,7.599
			c-0.003,4.199,3.399,7.606,7.599,7.609l14.343,0.01v4.32c0.001,4.198,3.405,7.603,7.605,7.603c4.199,0,7.604-3.405,7.604-7.604
			v-4.309l5.388,0.004c0.002,0,0.003,0,0.005,0c4.197,0,7.601-3.402,7.604-7.599C232.375,244.223,228.973,240.817,224.773,240.814z"
			/>
	</g>
</g>
<g>
</g>
<g>
</g>
<g>
</g>
<g>
</g>
<g>
</g>
<g>
</g>
<g>
</g>
<g>
</g>
<g>
</g>
<g>
</g>
<g>
</g>
<g>
</g>
<g>
</g>
<g>
</g>
<g>
</g>
</svg>
