<?xml version="1.0" encoding="iso-8859-1"?>
<!-- Generator: Adobe Illustrator 19.0.0, SVG Export Plug-In . SVG Version: 6.00 Build 0)  -->
<svg version="1.1" id="Capa_1" xmlns="http://www.w3.org/2000/svg" xmlns:xlink="http://www.w3.org/1999/xlink" x="0px" y="0px"
	 viewBox="0 0 512 512" style="enable-background:new 0 0 512 512;" xml:space="preserve">
<g>
	<g>
		<path d="M475.976,252.396c-3.471-3.997-8.769-5.906-13.99-5.044L12.758,321.529c-6.352,1.049-11.361,5.977-12.512,12.313
			c-1.15,6.335,1.805,12.709,7.383,15.926l73.514,42.387c2.314,1.335,4.94,2.037,7.612,2.037h339.092
			c6.657,0,12.544-4.32,14.538-10.671l36.622-116.564C480.595,261.906,479.447,256.393,475.976,252.396z"/>
	</g>
</g>
<g>
	<g>
		<path d="M507.606,122.273c-3.323-3.323-7.99-4.929-12.655-4.348c-1.872,0.233-46.223,6.014-80.622,33.893
			c-16.527,13.394-28.981,28.691-35.934,43.625l-41.848-62.712c-2.51-3.759-6.557-6.212-11.052-6.693
			c-4.497-0.481-8.97,1.056-12.22,4.198L175.143,263.822l281.878-46.543c2.459-0.405,4.963-0.611,7.447-0.611
			c3.904,0,7.744,0.511,11.448,1.468c0.719-0.851,1.436-1.711,2.145-2.586c11.775-14.528,21.046-32.453,27.555-53.279
			c2.011-6.436,3.677-12.911,4.951-19.244C512.297,134.427,513.546,128.212,507.606,122.273z"/>
	</g>
</g>
<g>
</g>
<g>
</g>
<g>
</g>
<g>
</g>
<g>
</g>
<g>
</g>
<g>
</g>
<g>
</g>
<g>
</g>
<g>
</g>
<g>
</g>
<g>
</g>
<g>
</g>
<g>
</g>
<g>
</g>
</svg>
